<svg version="1.1" id="Layer_1" xmlns="http://www.w3.org/2000/svg" xmlns:xlink="http://www.w3.org/1999/xlink" x="0px" y="0px" viewBox="360 393 230 229" xml:space="preserve">
<defs>
<clipPath id="circleClip">
<circle cx="475" cy="507" r="113"/>
</clipPath>
<mask id="holes" maskUnits="userSpaceOnUse" maskContentUnits="userSpaceOnUse" x="360" y="393" width="230" height="229">
<rect x="360" y="393" width="230" height="229" fill="#ffffff"/>
<circle cx="409.0" cy="476.5" r="7.5" fill="#000000"/>
<circle cx="441.0" cy="438.0" r="5.5" fill="#000000"/>
<circle cx="450.0" cy="598.0" r="5.0" fill="#000000"/>
<circle cx="405.0" cy="452.0" r="3.2" fill="#000000"/>
<circle cx="390.0" cy="533.0" r="3.0" fill="#000000"/>
<circle cx="418.0" cy="512.0" r="2.4" fill="#000000"/>
</mask>
</defs>
<g clip-path="url(#circleClip)" mask="url(#holes)">
<path fill="#ffffff" opacity="1.000000" stroke="none" d="
M513.196289,611.081421 C499.584930,615.706970 486.032654,617.595459 472.032318,616.671326 C468.769836,616.455994 466.977600,615.396790 465.461182,612.586487 C454.937408,593.083557 448.227844,572.171387 443.236389,550.747559 C438.443848,530.177490 434.558044,509.394531 430.429291,488.674103 C430.077789,486.910278 430.376617,484.616882 431.253387,483.067474 C447.810883,453.807129 467.434326,426.829193 491.222137,402.963989 C493.284027,400.895386 495.084961,400.123138 498.180725,400.697815 C572.857666,414.560150 610.663513,498.254700 571.725647,563.958862 C558.208130,586.768494 538.540100,602.201416 513.196289,611.081421 z"/>
<path fill="#ffffff" opacity="1.000000" stroke="none" d="
M411.179688,505.433960 C407.235962,517.149780 402.829773,528.348755 399.793701,539.907654 C396.766113,551.434265 395.111938,563.321594 392.860626,575.024780 C351.611603,526.070129 367.020966,449.308624 416.356934,419.037140 C419.139862,437.783783 421.983582,456.512329 424.601166,475.272400 C424.847137,477.035065 423.925842,479.118347 423.107727,480.844849 C419.261658,488.961304 415.262329,497.005127 411.179688,505.433960 z"/>
<path fill="#ffffff" opacity="1.000000" stroke="none" d="
M401.752686,574.369995 C405.034149,545.050354 412.999146,517.610474 427.064545,490.377228 C435.333618,534.005310 442.757935,576.446350 463.385254,616.669983 C454.285034,614.079285 445.666809,612.789001 438.143280,609.202393 C427.712891,604.230164 418.062897,597.601440 408.160156,591.548828 C401.820984,587.674194 399.199219,582.186951 401.752686,574.369995 z"/>
<path fill="#ffffff" opacity="1.000000" stroke="none" d="
M427.891052,411.068176 C445.442444,402.231628 463.660553,398.279694 483.991455,398.898041 C461.893433,421.157654 444.384613,445.686310 427.664703,472.667786 C425.992279,462.025391 424.476685,452.807404 423.114960,443.566772 C422.194366,437.319397 421.447906,431.045197 420.698914,424.773987 C419.400269,413.901062 417.804230,416.729492 427.891052,411.068176 z"/>
</g>
</svg>
